<svg version="1.1" id="svg-draw" xmlns="http://www.w3.org/2000/svg" xmlns:xlink="http://www.w3.org/1999/xlink" x="0px" y="0px" width="100%" height="100%" xml:space="preserve" xmlns:svgjs="http://svgjs.com/svgjs" viewBox="0 0 670 500">
	<g id="svg-content">
		<g id="svg-logo" class="svg-element" style="cursor: pointer;" transform="matrix(0.4858201154949554,0,0,0.4858201154949554,174.49868894096016,201.11598649737945)">
<path id="XMLID_1_" fill="#009043" d="M192,63.3h-13.2c5.2,11.1,8.1,23.6,8.1,36.7c0,48-38.9,86.9-86.9,86.9
	c-25.2,0-47.9-10.7-63.7-27.9H123c0,0,21.2,1.2,24-6.6l9.2-51.3l-56-1.2l7.3-37.1c0,0,0-9,14.7-8.4l66.2,0.1
	C171.8,23.1,138.1,1,100,1C45.3,1,1,45.3,1,100c0,12.7,2.4,24.9,6.8,36.1H21c-5-11-7.8-23.2-7.8-36.1c0-48,38.9-86.9,86.9-86.9
	c25.1,0,47.6,10.8,63.4,27.9H77c0,0-21.2-1.2-24,6.6l-9.2,51.3l56,1.2l-7.3,37.1c0,0,0,9-14.7,8.4l-65.7,0
	C28.6,177.3,61.7,199,100,199c54.7,0,99-44.3,99-99C199,87,196.5,74.7,192,63.3z"></path>
</g>
		<g id="svg-name" class="svg-element" style="cursor: pointer;" transform="matrix(0.9980000413086583,0,0,0.9979990956951973,309.61307345584413,215.57806539953717)"><g transform="matrix(1,0,0,1,0,0)" fill="#00b0f0"><path d="M45.31 46.45L17.97 46.45L17.97 40L29.49 40L29.49 31.41L29.49 31.41Q29.49 26.52 25 26.52L25 26.52L16.99 26.52L16.99 20.08L29.49 20.08L29.49 12.46L29.49 12.46Q29.49 7.19 24.80 7.19L24.80 7.19L17.77 7.19L17.77 0.16L48.05 0.16L48.05 3.67L48.05 3.67Q48.05 7.19 44.14 7.19L44.14 7.19L37.70 7.19L37.70 20.08L49.22 20.08L49.22 26.52L37.70 26.52L37.70 40L49.22 40L49.22 42.73L49.22 42.73Q49.22 46.45 45.31 46.45L45.31 46.45M8.40-0.43L15.82-0.43L15.82-0.43Q13.67 10.90 8.40 17.73L8.40 17.73L13.28 17.73L13.28 41.95L13.28 41.95Q13.28 46.45 8.98 46.45L8.98 46.45L5.27 46.45L5.27 20.66L1.95 21.84L1.95 12.07L1.95 12.07Q6.05 8.36 8.40-0.43L8.40-0.43ZM62.30 31.60L62.30 25.74L94.92 25.74L94.92 25.74Q100 26.91 97.27 32.19L97.27 32.19L90.82 39.80L99.02 46.45L87.11 46.45L84.38 44.30L78.32 46.05L78.32 46.05Q77.54 46.05 75.98 46.25L75.98 46.25L75.98 46.25Q73.05 46.45 70.12 46.45L70.12 46.45L70.12 46.45Q67.38 46.05 63.87 44.30L63.87 44.30L63.87 44.30Q59.57 39.02 64.45 34.73L64.45 34.73L64.45 34.73Q71.29 31.21 79.69 33.75L79.69 33.75L84.96 35.70L88.28 31.60L62.30 31.60M98.44 8.16L59.96 8.16L59.96 41.76L59.96 41.76Q59.77 46.25 55.86 46.05L55.86 46.05L52.34 46.05L52.34 8.16L52.34 8.16Q52.34 1.72 58.79 1.91L58.79 1.91L73.44 1.91L73.44-0.43L81.64-0.43L81.64 1.91L98.44 1.91L98.44 8.16M73.24 12.07L88.48 12.07L88.48 9.53L96.29 9.53L96.29 12.07L98.24 12.07L98.24 17.34L96.29 17.34L96.29 20.27L96.29 20.27Q96.29 24.77 90.23 24.77L90.23 24.77L70.70 24.77L70.70 24.77Q64.84 24.77 64.84 20.08L64.84 20.08L64.84 17.34L62.11 17.34L62.11 12.07L64.84 12.07L64.84 9.34L73.24 9.34L73.24 12.07M88.48 20.08L88.48 17.34L73.24 17.34L73.24 20.08L88.48 20.08M69.14 39.41L69.14 39.41L69.14 39.41Q69.14 40 70.31 40L70.31 40L70.31 40Q71.48 40.39 73.63 40.59L73.63 40.59L73.63 40.59Q76.17 40.39 78.52 39.61L78.52 39.61L78.52 39.61Q75.98 38.44 73.05 38.05L73.05 38.05L73.05 38.05Q71.48 37.85 70.31 38.44L70.31 38.44L70.31 38.44Q69.14 38.83 69.14 39.41ZM138.09 23.20L138.09 25.55L146.48 25.55L146.48 25.55Q150 26.52 148.05 31.80L148.05 31.80L142.38 39.61L149.22 46.25L138.87 46.25L136.91 44.10L133.79 45.66L133.79 45.66Q128.91 46.64 125.98 46.25L125.98 46.25L125.98 46.25Q123.24 45.86 120.31 43.52L120.31 43.52L120.31 43.52Q117.77 38.63 121.29 34.34L121.29 34.34L121.29 34.34Q126.56 30.82 133.59 33.55L133.59 33.55L137.11 34.92L139.45 31.21L120.12 31.41L120.12 25.16L130.86 25.16L130.86 23.20L120.31 23.20L120.31 6.80L120.31 6.80Q120.31 1.72 123.83 1.72L123.83 1.72L124.22 1.72L124.22 1.72Q125 1.52 125 0.35L125 0.35L125-0.04L129.69-0.04L129.69 2.11L129.69 2.11Q129.69 7.38 126.37 7.58L126.37 7.58L126.37 9.34L129.10 9.34L129.10 14.61L126.37 14.61L126.37 17.34L130.86 17.34L130.86 0.16L138.09 0.16L138.09 17.34L142.19 17.34L142.19 14.61L139.84 14.61L139.84 9.34L142.19 9.34L142.19 6.80L139.84 6.80L139.84 1.13L144.34 1.13L144.34 1.13Q148.24 1.13 148.24 6.21L148.24 6.21L148.24 23.20L138.09 23.20M115.04 26.52L115.04 41.56L115.04 41.56Q115.04 43.32 113.87 44.69L113.87 44.69L113.87 44.69Q112.30 46.45 110.16 46.45L110.16 46.45L103.52 46.45L103.52 40.59L105.27 40.59L105.27 40.59Q106.84 40.20 107.03 40L107.03 40L107.03 40Q107.62 39.61 107.42 28.87L107.42 28.87L101.95 30.43L101.95 22.81L107.42 21.25L107.42 15.78L107.42 15.78Q107.62 11.09 103.52 10.90L103.52 10.90L102.15 10.90L102.15 4.45L107.42 4.45L107.42-0.43L115.04-0.43L115.04 4.45L118.36 4.45L118.36 10.90L115.04 10.90L115.04 18.71L118.36 17.73L118.36 25.35L115.04 26.52M125.78 39.61L125.78 39.61L125.78 39.61Q125.78 40 126.56 40.39L126.56 40.39L126.56 40.39Q127.34 40.78 128.52 40.78L128.52 40.78L128.52 40.78Q130.86 40.39 132.23 39.41L132.23 39.41L132.23 39.41Q130.86 38.05 128.52 37.85L128.52 37.85L128.52 37.85Q127.34 37.85 126.56 38.24L126.56 38.24L126.56 38.24Q125.78 38.83 125.78 39.61Z"></path></g></g>
		<g id="svg-slogan" class="svg-element" style="cursor: pointer;" transform="matrix(1,0,0,1,272.3656779527664,257.7470245361328)"><g transform="matrix(1,0,0,1,0,0)" fill="#888888"><path d="M21.02 18.48L21.02 19.28L21.02 19.28Q19.58 19.28 18.65 21.33L18.65 21.33L14.70 30.02L13.60 30.02L10.67 23.21L7.54 30.02L6.71 30.02L2.88 21.11L2.88 21.11Q2.08 19.28 0.63 19.28L0.63 19.28L0.63 18.48L7.74 18.48L7.74 19.31L7.74 19.31Q6.30 19.31 6.30 20.04L6.30 20.04L6.30 20.04Q6.30 20.31 6.47 20.72L6.47 20.72L8.62 25.73L10.23 22.21L9.67 20.97L9.67 20.97Q8.96 19.28 8.01 19.28L8.01 19.28L8.01 18.48L14.77 18.48L14.77 19.31L14.77 19.31Q13.26 19.31 13.26 20.01L13.26 20.01L13.26 20.01Q13.26 20.38 13.45 20.87L13.45 20.87L15.63 26.07L17.80 21.14L17.80 21.14Q17.99 20.70 17.99 20.31L17.99 20.31L17.99 20.31Q17.99 19.31 15.94 19.31L15.94 19.31L15.94 18.48L21.02 18.48ZM42.68 18.48L42.68 19.28L42.68 19.28Q41.24 19.28 40.31 21.33L40.31 21.33L36.35 30.02L35.25 30.02L32.32 23.21L29.20 30.02L28.37 30.02L24.54 21.11L24.54 21.11Q23.73 19.28 22.29 19.28L22.29 19.28L22.29 18.48L29.39 18.48L29.39 19.31L29.39 19.31Q27.95 19.31 27.95 20.04L27.95 20.04L27.95 20.04Q27.95 20.31 28.13 20.72L28.13 20.72L30.27 25.73L31.88 22.21L31.32 20.97L31.32 20.97Q30.62 19.28 29.66 19.28L29.66 19.28L29.66 18.48L36.43 18.48L36.43 19.31L36.43 19.31Q34.91 19.31 34.91 20.01L34.91 20.01L34.91 20.01Q34.91 20.38 35.11 20.87L35.11 20.87L37.28 26.07L39.45 21.14L39.45 21.14Q39.65 20.70 39.65 20.31L39.65 20.31L39.65 20.31Q39.65 19.31 37.60 19.31L37.60 19.31L37.60 18.48L42.68 18.48ZM64.33 18.48L64.33 19.28L64.33 19.28Q62.89 19.28 61.96 21.33L61.96 21.33L58.01 30.02L56.91 30.02L53.98 23.21L50.85 30.02L50.02 30.02L46.19 21.11L46.19 21.11Q45.39 19.28 43.95 19.28L43.95 19.28L43.95 18.48L51.05 18.48L51.05 19.31L51.05 19.31Q49.61 19.31 49.61 20.04L49.61 20.04L49.61 20.04Q49.61 20.31 49.78 20.72L49.78 20.72L51.93 25.73L53.54 22.21L52.98 20.97L52.98 20.97Q52.27 19.28 51.32 19.28L51.32 19.28L51.32 18.48L58.08 18.48L58.08 19.31L58.08 19.31Q56.57 19.31 56.57 20.01L56.57 20.01L56.57 20.01Q56.57 20.38 56.76 20.87L56.76 20.87L58.94 26.07L61.11 21.14L61.11 21.14Q61.30 20.70 61.30 20.31L61.30 20.31L61.30 20.31Q61.30 19.31 59.25 19.31L59.25 19.31L59.25 18.48L64.33 18.48ZM71.66 27.51L71.66 27.51L71.66 27.51Q71.66 28.56 70.95 29.29L70.95 29.29L70.95 29.29Q70.21 30.02 69.17 30.02L69.17 30.02L69.17 30.02Q68.14 30.02 67.41 29.27L67.41 29.27L67.41 29.27Q66.67 28.54 66.67 27.51L66.67 27.51L66.67 27.51Q66.67 26.46 67.38 25.75L67.38 25.75L67.38 25.75Q68.12 25.02 69.17 25.02L69.17 25.02L69.17 25.02Q70.24 25.02 70.97 25.73L70.97 25.73L70.97 25.73Q71.66 26.44 71.66 27.51ZM81.79 20.21L81.79 20.21L81.79 20.21Q81.79 21.85 80.25 21.85L80.25 21.85L80.25 21.85Q79.52 21.85 79.03 21.11L79.03 21.11L79.03 21.11Q78.56 20.36 78.59 20.36L78.59 20.36L78.59 20.36Q78.22 20.36 77.81 20.77L77.81 20.77L77.81 27.49L77.81 27.49Q77.81 28.93 78.98 28.93L78.98 28.93L78.98 29.66L73.61 29.66L73.61 28.93L73.61 28.93Q74.80 28.93 74.80 27.49L74.80 27.49L74.80 20.92L74.80 20.92Q74.80 20.04 74.68 19.79L74.68 19.79L74.68 19.79Q74.49 19.38 73.78 19.38L73.78 19.38L73.78 18.67L73.78 18.67Q75.37 18.67 77.81 18.11L77.81 18.11L77.81 19.38L77.81 19.38Q78.98 18.53 79.81 18.53L79.81 18.53L79.81 18.53Q81.79 18.53 81.79 20.21ZM93.58 25.95L94.29 26.31L94.29 26.31Q92.29 30.02 88.50 30.02L88.50 30.02L88.50 30.02Q86.06 30.02 84.42 28.29L84.42 28.29L84.42 28.29Q82.79 26.56 82.79 24.09L82.79 24.09L82.79 24.09Q82.79 21.48 84.35 19.82L84.35 19.82L84.35 19.82Q85.94 18.11 88.50 18.11L88.50 18.11L88.50 18.11Q91.06 18.11 92.43 19.62L92.43 19.62L92.43 19.62Q93.80 21.14 93.80 23.73L93.80 23.73L86.40 23.73L86.40 23.73Q86.43 28.71 88.99 28.71L88.99 28.71L88.99 28.71Q91.65 28.71 93.58 25.95L93.58 25.95M86.45 22.92L90.09 22.92L90.09 22.92Q89.87 18.99 88.35 18.99L88.35 18.99L88.35 18.99Q86.94 18.99 86.45 22.92L86.45 22.92ZM110.94 28.85L110.94 29.66L103.56 29.66L103.56 28.85L103.56 28.85Q105.47 28.85 105.47 27.00L105.47 27.00L105.47 21.77L105.47 21.77Q105.47 19.28 103.69 19.28L103.69 19.28L103.69 19.28Q102.61 19.28 101.12 20.21L101.12 20.21L101.12 27.00L101.12 27.00Q101.12 28.85 103.03 28.85L103.03 28.85L103.03 29.66L95.83 29.66L95.83 28.85L95.83 28.85Q97.58 28.85 97.58 27.00L97.58 27.00L97.58 21.63L97.58 21.63Q97.58 20.60 97.17 20.26L97.17 20.26L97.17 20.26Q96.83 20.01 95.78 20.01L95.78 20.01L95.78 19.21L95.78 19.21Q97.39 19.21 98.51 18.96L98.51 18.96L98.51 18.96Q99.54 18.77 101.12 18.11L101.12 18.11L101.12 19.16L101.12 19.16Q102.59 18.11 104.49 18.11L104.49 18.11L104.49 18.11Q108.96 18.11 108.96 22.26L108.96 22.26L108.96 27.00L108.96 27.00Q108.96 28.85 110.94 28.85L110.94 28.85ZM125.15 28.95L125.15 29.76L125.15 29.76Q121.56 29.76 120.02 30.27L120.02 30.27L120.02 29.17L120.02 29.17Q118.99 30.02 117.72 30.02L117.72 30.02L117.72 30.02Q115.38 30.02 113.87 28.24L113.87 28.24L113.87 28.24Q112.45 26.56 112.45 24.17L112.45 24.17L112.45 24.17Q112.45 21.48 113.82 19.87L113.82 19.87L113.82 19.87Q115.28 18.11 117.92 18.11L117.92 18.11L117.92 18.11Q118.99 18.11 120.02 18.60L120.02 18.60L120.02 16.96L120.02 16.96Q120.02 15.45 118.36 15.45L118.36 15.45L118.36 14.62L118.36 14.62Q121.09 14.62 123.49 13.25L123.49 13.25L123.49 27.29L123.49 27.29Q123.49 28.95 125.15 28.95L125.15 28.95M120.02 27.97L120.02 27.97L120.02 19.67L120.02 19.67Q119.36 19.18 118.53 19.18L118.53 19.18L118.53 19.18Q117.26 19.18 116.65 21.14L116.65 21.14L116.65 21.14Q116.19 22.50 116.19 24.14L116.19 24.14L116.19 24.14Q116.19 28.93 118.36 28.93L118.36 28.93L118.36 28.93Q119.17 28.93 120.02 27.97ZM138.84 24.07L138.84 24.07L138.84 24.07Q138.84 26.68 137.13 28.36L137.13 28.36L137.13 28.36Q135.40 30.02 132.76 30.02L132.76 30.02L132.76 30.02Q130.13 30.02 128.39 28.34L128.39 28.34L128.39 28.34Q126.66 26.66 126.66 24.07L126.66 24.07L126.66 24.07Q126.66 21.46 128.39 19.79L128.39 19.79L128.39 19.79Q130.13 18.11 132.76 18.11L132.76 18.11L132.76 18.11Q135.42 18.11 137.16 19.77L137.16 19.77L137.16 19.77Q138.84 21.41 138.84 24.07M135.11 24.07L135.11 24.07L135.11 24.07Q135.11 22.31 134.67 20.97L134.67 20.97L134.67 20.97Q134.08 18.94 132.76 18.94L132.76 18.94L132.76 18.94Q131.42 18.94 130.83 20.97L130.83 20.97L130.83 20.97Q130.40 22.31 130.40 24.07L130.40 24.07L130.40 24.07Q130.40 25.83 130.83 27.17L130.83 27.17L130.83 27.17Q131.42 29.19 132.76 29.19L132.76 29.19L132.76 29.19Q134.08 29.19 134.67 27.17L134.67 27.17L134.67 27.17Q135.11 25.83 135.11 24.07ZM150.10 26.12L150.10 26.12L150.10 26.12Q150.10 27.97 148.90 29.00L148.90 29.00L148.90 29.00Q147.73 30.02 145.83 30.02L145.83 30.02L145.83 30.02Q145.00 30.02 143.95 29.63L143.95 29.63L143.95 29.63Q142.92 29.27 142.87 29.27L142.87 29.27L142.87 29.27Q142.41 29.27 141.55 30.29L141.55 30.29L140.48 25.39L141.02 25.21L141.02 25.21Q141.94 26.63 143.02 27.66L143.02 27.66L143.02 27.66Q144.53 29.12 145.70 29.12L145.70 29.12L145.70 29.12Q146.46 29.12 147.05 28.71L147.05 28.71L147.05 28.71Q147.68 28.29 147.68 27.56L147.68 27.56L147.68 27.56Q147.68 26.44 145.92 25.78L145.92 25.78L145.92 25.78Q145.14 25.51 142.60 24.46L142.60 24.46L142.60 24.46Q140.72 23.60 140.72 21.55L140.72 21.55L140.72 21.55Q140.72 19.97 141.87 19.01L141.87 19.01L141.87 19.01Q142.94 18.11 144.56 18.11L144.56 18.11L144.56 18.11Q145.12 18.11 146.09 18.35L146.09 18.35L146.09 18.35Q147.07 18.62 147.39 18.62L147.39 18.62L147.39 18.62Q147.78 18.62 148.44 17.92L148.44 17.92L149.27 22.24L148.68 22.41L148.68 22.41Q148.10 21.09 146.95 20.09L146.95 20.09L146.95 20.09Q145.65 18.96 144.38 18.96L144.38 18.96L144.38 18.96Q143.04 18.96 143.04 20.19L143.04 20.19L143.04 20.19Q143.04 21.06 144.80 21.77L144.80 21.77L144.80 21.77Q148.00 23.04 148.22 23.19L148.22 23.19L148.22 23.19Q150.10 24.29 150.10 26.12ZM163.92 24.07L163.92 24.07L163.92 24.07Q163.92 26.68 162.21 28.36L162.21 28.36L162.21 28.36Q160.47 30.02 157.84 30.02L157.84 30.02L157.84 30.02Q155.20 30.02 153.47 28.34L153.47 28.34L153.47 28.34Q151.73 26.66 151.73 24.07L151.73 24.07L151.73 24.07Q151.73 21.46 153.47 19.79L153.47 19.79L153.47 19.79Q155.20 18.11 157.84 18.11L157.84 18.11L157.84 18.11Q160.50 18.11 162.23 19.77L162.23 19.77L162.23 19.77Q163.92 21.41 163.92 24.07M160.18 24.07L160.18 24.07L160.18 24.07Q160.18 22.31 159.74 20.97L159.74 20.97L159.74 20.97Q159.16 18.94 157.84 18.94L157.84 18.94L157.84 18.94Q156.49 18.94 155.91 20.97L155.91 20.97L155.91 20.97Q155.47 22.31 155.47 24.07L155.47 24.07L155.47 24.07Q155.47 25.83 155.91 27.17L155.91 27.17L155.91 27.17Q156.49 29.19 157.84 29.19L157.84 29.19L157.84 29.19Q159.16 29.19 159.74 27.17L159.74 27.17L159.74 27.17Q160.18 25.83 160.18 24.07ZM171.36 27.51L171.36 27.51L171.36 27.51Q171.36 28.56 170.65 29.29L170.65 29.29L170.65 29.29Q169.92 30.02 168.87 30.02L168.87 30.02L168.87 30.02Q167.85 30.02 167.11 29.27L167.11 29.27L167.11 29.27Q166.38 28.54 166.38 27.51L166.38 27.51L166.38 27.51Q166.38 26.46 167.09 25.75L167.09 25.75L167.09 25.75Q167.82 25.02 168.87 25.02L168.87 25.02L168.87 25.02Q169.95 25.02 170.68 25.73L170.68 25.73L170.68 25.73Q171.36 26.44 171.36 27.51ZM184.64 26.14L185.33 26.66L185.33 26.66Q183.08 30.02 179.86 30.02L179.86 30.02L179.86 30.02Q177.17 30.02 175.49 28.36L175.49 28.36L175.49 28.36Q173.83 26.73 173.83 24.07L173.83 24.07L173.83 24.07Q173.83 21.36 175.46 19.75L175.46 19.75L175.46 19.75Q177.15 18.11 179.86 18.11L179.86 18.11L179.86 18.11Q181.45 18.11 182.71 18.75L182.71 18.75L182.71 18.75Q184.35 19.53 184.35 20.97L184.35 20.97L184.35 20.97Q184.35 21.70 183.86 22.21L183.86 22.21L183.86 22.21Q183.42 22.77 182.69 22.77L182.69 22.77L182.69 22.77Q181.98 22.77 181.45 22.29L181.45 22.29L181.45 22.29Q180.93 21.82 180.93 21.09L180.93 21.09L180.93 21.09Q180.93 20.87 181.08 20.41L181.08 20.41L181.08 20.41Q181.20 19.94 181.20 19.75L181.20 19.75L181.20 19.75Q181.20 18.96 180.05 18.96L180.05 18.96L180.05 18.96Q178.83 18.96 178.10 20.89L178.10 20.89L178.10 20.89Q177.54 22.36 177.54 23.87L177.54 23.87L177.54 23.87Q177.54 25.65 178.13 26.95L178.13 26.95L178.13 26.95Q178.88 28.68 180.42 28.68L180.42 28.68L180.42 28.68Q182.86 28.68 184.64 26.14L184.64 26.14ZM199.00 24.07L199.00 24.07L199.00 24.07Q199.00 26.68 197.29 28.36L197.29 28.36L197.29 28.36Q195.56 30.02 192.92 30.02L192.92 30.02L192.92 30.02Q190.28 30.02 188.55 28.34L188.55 28.34L188.55 28.34Q186.82 26.66 186.82 24.07L186.82 24.07L186.82 24.07Q186.82 21.46 188.55 19.79L188.55 19.79L188.55 19.79Q190.28 18.11 192.92 18.11L192.92 18.11L192.92 18.11Q195.58 18.11 197.31 19.77L197.31 19.77L197.31 19.77Q199.00 21.41 199.00 24.07M195.26 24.07L195.26 24.07L195.26 24.07Q195.26 22.31 194.82 20.97L194.82 20.97L194.82 20.97Q194.24 18.94 192.92 18.94L192.92 18.94L192.92 18.94Q191.58 18.94 190.99 20.97L190.99 20.97L190.99 20.97Q190.55 22.31 190.55 24.07L190.55 24.07L190.55 24.07Q190.55 25.83 190.99 27.17L190.99 27.17L190.99 27.17Q191.58 29.19 192.92 29.19L192.92 29.19L192.92 29.19Q194.24 29.19 194.82 27.17L194.82 27.17L194.82 27.17Q195.26 25.83 195.26 24.07ZM221.34 28.85L221.34 29.66L214.50 29.66L214.50 28.85L214.50 28.85Q215.53 28.85 215.82 28.36L215.82 28.36L215.82 28.36Q216.06 28.05 216.06 26.97L216.06 26.97L216.06 21.55L216.06 21.55Q216.06 19.26 214.60 19.26L214.60 19.26L214.60 19.26Q213.75 19.26 212.52 20.28L212.52 20.28L212.52 20.28Q212.79 20.92 212.79 21.82L212.79 21.82L212.79 26.97L212.79 26.97Q212.79 28.85 214.26 28.85L214.26 28.85L214.26 29.66L207.67 29.66L207.67 28.85L207.67 28.85Q209.20 28.85 209.20 26.97L209.20 26.97L209.20 21.55L209.20 21.55Q209.20 20.72 208.89 20.09L208.89 20.09L208.89 20.09Q208.47 19.26 207.74 19.26L207.74 19.26L207.74 19.26Q206.91 19.26 205.96 20.01L205.96 20.01L205.96 27.00L205.96 27.00Q205.96 27.97 206.18 28.34L206.18 28.34L206.18 28.34Q206.49 28.85 207.42 28.85L207.42 28.85L207.42 29.66L200.59 29.66L200.59 28.85L200.59 28.85Q202.39 28.85 202.39 27.00L202.39 27.00L202.39 21.80L202.39 21.80Q202.39 20.16 200.51 20.16L200.51 20.16L200.51 19.33L200.51 19.33Q202.25 19.33 203.30 19.06L203.30 19.06L203.30 19.06Q203.96 18.92 205.96 18.11L205.96 18.11L205.96 19.06L205.96 19.06Q207.20 18.11 208.84 18.11L208.84 18.11L208.84 18.11Q211.13 18.11 212.16 19.58L212.16 19.58L212.16 19.58Q213.84 18.11 215.70 18.11L215.70 18.11L215.70 18.11Q217.50 18.11 218.58 19.06L218.58 19.06L218.58 19.06Q219.65 20.01 219.65 21.82L219.65 21.82L219.65 26.97L219.65 26.97Q219.65 28.85 221.34 28.85L221.34 28.85Z"></path></g></g>
		<g id="svg-atext" class="svg-element" style="cursor: pointer;" transform="matrix(1,0,0,1,334.5,249.5)"></g>
	</g>
<defs id="SvgjsDefs1006"></defs><g id="svg-ghost" transform="matrix(1,0,0,1,0,0)"></g></svg>